<?xml version="1.0" encoding="UTF-8" standalone="no"?>
<!-- Created with Inkscape (http://www.inkscape.org/) -->

<svg
   width="170.57886mm"
   height="50.612198mm"
   viewBox="0 0 170.57886 50.612199"
   version="1.1"
   id="svg8"
   inkscape:version="1.4.2 (ebf0e940d0, 2025-05-08)"
   sodipodi:docname="ots_logo_transparent.svg"
   inkscape:export-filename="/home/pacha/Desktop/ots_logo.png"
   inkscape:export-xdpi="359.92422"
   inkscape:export-ydpi="359.92422"
   xml:space="preserve"
   xmlns:inkscape="http://www.inkscape.org/namespaces/inkscape"
   xmlns:sodipodi="http://sodipodi.sourceforge.net/DTD/sodipodi-0.dtd"
   xmlns="http://www.w3.org/2000/svg"
   xmlns:svg="http://www.w3.org/2000/svg"
   xmlns:rdf="http://www.w3.org/1999/02/22-rdf-syntax-ns#"
   xmlns:cc="http://creativecommons.org/ns#"
   xmlns:dc="http://purl.org/dc/elements/1.1/"><defs
     id="defs2" /><sodipodi:namedview
     id="base"
     pagecolor="#ffffff"
     bordercolor="#666666"
     borderopacity="1.0"
     inkscape:pageopacity="0.0"
     inkscape:pageshadow="2"
     inkscape:zoom="0.98994949"
     inkscape:cx="467.19555"
     inkscape:cy="109.60155"
     inkscape:document-units="mm"
     inkscape:current-layer="layer1"
     showgrid="false"
     showguides="true"
     inkscape:guide-bbox="true"
     fit-margin-top="5"
     fit-margin-left="0"
     fit-margin-right="0"
     fit-margin-bottom="5"
     inkscape:window-width="1920"
     inkscape:window-height="1128"
     inkscape:window-x="0"
     inkscape:window-y="0"
     inkscape:window-maximized="1"
     inkscape:showpageshadow="2"
     inkscape:pagecheckerboard="0"
     inkscape:deskcolor="#d1d1d1"><sodipodi:guide
       position="30.036701,34.042432"
       orientation="1,0"
       id="guide883"
       inkscape:locked="false" /><sodipodi:guide
       position="103.93105,37.77495"
       orientation="1,0"
       id="guide885"
       inkscape:locked="false" /><sodipodi:guide
       position="16.750018,-21.635687"
       orientation="0,-1"
       id="guide3"
       inkscape:locked="false" /><sodipodi:guide
       position="39.047068,-20.336298"
       orientation="0,-1"
       id="guide21"
       inkscape:locked="false" /><sodipodi:guide
       position="-34.040067,28.602666"
       orientation="1,0"
       id="guide22"
       inkscape:locked="false" /></sodipodi:namedview><metadata
     id="metadata5"><rdf:RDF><cc:Work
         rdf:about=""><dc:format>image/svg+xml</dc:format><dc:type
           rdf:resource="http://purl.org/dc/dcmitype/StillImage" /></cc:Work></rdf:RDF></metadata><g
     inkscape:label="Layer 1"
     inkscape:groupmode="layer"
     id="layer1"
     transform="translate(-96.679826,-225.7288)"><g
       id="g4"
       transform="matrix(2.4256916,0,0,1,-233.41937,-0.17128286)"><g
         id="g23"
         transform="matrix(0.38592299,0,0,0.38592299,130.78714,162.19173)"><g
           id="g22"
           transform="matrix(1.0000019,0,0,0.93513718,-1.6954298e-4,10.707586)"><rect
             y="-239.44177"
             x="-119.16874"
             height="74.361282"
             width="12.591489"
             id="rect862"
             style="fill:#7454a6;fill-opacity:1;stroke:none;stroke-width:21.6458;stroke-miterlimit:4;stroke-dasharray:none"
             transform="scale(-1)" /><rect
             y="-106.57725"
             x="165.08051"
             height="16.075743"
             width="74.361267"
             id="rect856"
             style="fill:#a1aafc;fill-opacity:1;stroke:none;stroke-width:24.4581;stroke-miterlimit:4;stroke-dasharray:none"
             transform="rotate(90)" /></g><rect
           style="fill:#bdd9af;fill-opacity:1;stroke:none;stroke-width:12.0851;stroke-miterlimit:4;stroke-dasharray:none"
           id="rect858"
           width="12.591476"
           height="23.179102"
           x="106.5773"
           y="165.08049" /></g></g><g
       id="g5"
       transform="translate(24.814375,-1.299389)"><g
         id="g1"
         transform="translate(-54.617559,22.557962)"><path
           inkscape:connector-curvature="0"
           id="path836"
           style="font-style:normal;font-variant:normal;font-weight:800;font-stretch:normal;font-size:16.9333px;line-height:0.7;font-family:'Roboto Slab';-inkscape-font-specification:'Roboto Slab Ultra-Bold';letter-spacing:0px;word-spacing:0px;fill:#2e87c8;fill-opacity:1;stroke:none;stroke-width:0.264583"
           d="m 132.04753,251.81648 q -1.23197,0 -2.25723,-0.45475 -1.01699,-0.45475 -1.76113,-1.28158 -0.74414,-0.82682 -1.14929,-1.93476 -0.39687,-1.11621 -0.39687,-2.43086 v -0.19017 q 0,-1.30638 0.39687,-2.41432 0.40515,-1.10795 1.14102,-1.93477 0.74414,-0.82682 1.76113,-1.28157 1.02526,-0.46302 2.25723,-0.46302 1.2237,0 2.24896,0.46302 1.02526,0.45475 1.78593,1.28157 0.76068,0.82682 1.17409,1.93477 0.41341,1.10794 0.41341,2.41432 v 0.19017 q 0,1.31465 -0.41341,2.43086 -0.41341,1.10794 -1.17409,1.93476 -0.7524,0.82683 -1.77767,1.28158 -1.02526,0.45475 -2.24895,0.45475 z m 0,-2.02571 q 0.96738,0 1.62884,-0.51263 0.66972,-0.51263 1.00872,-1.42214 0.339,-0.91777 0.339,-2.14147 v -0.20671 q 0,-1.19889 -0.34727,-2.10839 -0.33899,-0.90951 -1.00872,-1.42214 -0.66146,-0.51263 -1.62884,-0.51263 -0.99219,0 -1.63711,0.51263 -0.64492,0.50436 -0.95912,1.41387 -0.31419,0.90123 -0.31419,2.11666 v 0.20671 q 0,1.2237 0.31419,2.14147 0.32247,0.91777 0.96739,1.4304 0.65319,0.50437 1.63711,0.50437 z" /><path
           inkscape:connector-curvature="0"
           id="path838"
           style="font-style:normal;font-variant:normal;font-weight:800;font-stretch:normal;font-size:16.9333px;line-height:0.7;font-family:'Roboto Slab';-inkscape-font-specification:'Roboto Slab Ultra-Bold';letter-spacing:0px;word-spacing:0px;fill:#2e87c8;fill-opacity:1;stroke:none;stroke-width:0.264583"
           d="m 138.62904,255.08243 v -1.57096 l 1.14101,-0.25632 v -8.73125 l -1.2733,-0.25631 v -1.57096 h 3.72897 l 0.10748,1.02526 q 0.38034,-0.57051 0.91778,-0.87644 0.53743,-0.31419 1.30638,-0.31419 1.0666,0 1.82728,0.58705 0.76894,0.58704 1.17408,1.64537 0.41342,1.05007 0.41342,2.45567 v 0.17363 q 0,1.32292 -0.41342,2.32337 -0.40514,1.00046 -1.18235,1.55443 -0.76895,0.5457 -1.85209,0.5457 -0.69453,0 -1.22369,-0.24804 -0.5209,-0.25632 -0.90124,-0.75241 v 2.43912 l 1.09141,0.25632 v 1.57096 z m 5.10976,-5.2834 q 0.8599,0 1.2237,-0.64492 0.3638,-0.64492 0.3638,-1.76113 v -0.17363 q 0,-0.79375 -0.16536,-1.38907 -0.16537,-0.59531 -0.5209,-0.92604 -0.34727,-0.33073 -0.91777,-0.33073 -0.43822,0 -0.77722,0.19844 -0.33899,0.19017 -0.5457,0.57051 v 3.78685 q 0.20671,0.33073 0.5457,0.50436 0.34727,0.16536 0.79375,0.16536 z" /><path
           inkscape:connector-curvature="0"
           id="path840"
           style="font-style:normal;font-variant:normal;font-weight:800;font-stretch:normal;font-size:16.9333px;line-height:0.7;font-family:'Roboto Slab';-inkscape-font-specification:'Roboto Slab Ultra-Bold';letter-spacing:0px;word-spacing:0px;fill:#2e87c8;fill-opacity:1;stroke:none;stroke-width:0.264583"
           d="m 153.38782,251.81648 q -1.29811,0 -2.26549,-0.56224 -0.96738,-0.57051 -1.50482,-1.55442 -0.52916,-0.99219 -0.52916,-2.24896 v -0.32246 q 0,-1.33946 0.48782,-2.38125 0.48783,-1.0418 1.4056,-1.62884 0.91777,-0.59532 2.19935,-0.58705 1.21543,0 2.05052,0.47129 0.83509,0.47129 1.26504,1.38079 0.43821,0.90124 0.43821,2.19935 v 1.4056 h -5.10149 l -0.008,0.0496 q 0.0496,0.51263 0.28112,0.90951 0.23978,0.3886 0.65319,0.62011 0.42168,0.23151 1.02526,0.23151 0.62012,0 1.17409,-0.14882 0.56224,-0.14883 1.13275,-0.46302 l 0.66145,1.6123 q -0.57877,0.43822 -1.43867,0.7276 -0.85163,0.28939 -1.9265,0.28939 z m -1.54615,-5.52317 h 2.64583 v -0.21498 q 0,-0.51263 -0.12402,-0.86816 -0.11576,-0.3638 -0.39688,-0.55397 -0.27285,-0.19017 -0.7276,-0.19017 -0.46302,0 -0.76068,0.23151 -0.29766,0.23151 -0.45475,0.63665 -0.14883,0.40514 -0.20671,0.91777 z" /><path
           inkscape:connector-curvature="0"
           id="path842"
           style="font-style:normal;font-variant:normal;font-weight:800;font-stretch:normal;font-size:16.9333px;line-height:0.7;font-family:'Roboto Slab';-inkscape-font-specification:'Roboto Slab Ultra-Bold';letter-spacing:0px;word-spacing:0px;fill:#2e87c8;fill-opacity:1;stroke:none;stroke-width:0.264583"
           d="m 157.88574,251.64285 v -1.5627 l 1.10794,-0.25631 v -5.29994 l -1.26503,-0.25631 v -1.57096 h 3.7455 l 0.10749,1.26503 q 0.44648,-0.67799 1.09967,-1.05006 0.65319,-0.38034 1.48829,-0.38034 1.28984,0 2.03398,0.85163 0.74414,0.85163 0.74414,2.68717 v 3.75378 l 1.09968,0.25631 v 1.5627 h -4.70463 v -1.5627 l 0.95085,-0.25631 v -3.75378 q 0,-0.81028 -0.33073,-1.14928 -0.32246,-0.34727 -0.94258,-0.34727 -0.46302,0 -0.81028,0.19017 -0.339,0.1819 -0.57051,0.52917 v 4.53099 l 0.85989,0.25631 v 1.5627 z" /></g><g
         id="g2"
         transform="translate(-8.3168075,9.1016017)"><path
           inkscape:connector-curvature="0"
           id="path844"
           style="font-style:normal;font-variant:normal;font-weight:800;font-stretch:normal;font-size:16.9333px;line-height:0.7;font-family:'Roboto Slab';-inkscape-font-specification:'Roboto Slab Ultra-Bold';letter-spacing:0px;word-spacing:0px;fill:#2e87c8;fill-opacity:1;stroke:none;stroke-width:0.264583"
           d="m 129.07096,265.09921 v -1.5627 l 1.27331,-0.25631 v -8.17728 h -2.03398 l -0.10749,1.37253 h -1.99264 v -3.41478 h 10.94713 v 3.41478 h -2.01745 l -0.0992,-1.37253 h -2.05053 v 8.17728 l 1.27331,0.25631 v 1.5627 z" /><path
           inkscape:connector-curvature="0"
           id="path846"
           style="font-style:normal;font-variant:normal;font-weight:800;font-stretch:normal;font-size:16.9333px;line-height:0.7;font-family:'Roboto Slab';-inkscape-font-specification:'Roboto Slab Ultra-Bold';letter-spacing:0px;word-spacing:0px;fill:#2e87c8;fill-opacity:1;stroke:none;stroke-width:0.264583"
           d="m 137.62031,265.09921 v -1.5627 l 1.09968,-0.25631 v -5.29993 l -1.25677,-0.25632 v -1.57096 h 3.73724 l 0.0827,1.09967 0.0165,0.21498 q 0.3142,-0.75241 0.77722,-1.11622 0.46302,-0.3638 1.14101,-0.3638 0.19844,0 0.44649,0.0331 0.25631,0.0331 0.47956,0.0992 l -0.27286,2.43086 -1.21543,-0.0579 q -0.47955,-0.0248 -0.76067,0.13229 -0.28112,0.15709 -0.52917,0.47955 v 4.17546 l 1.10794,0.25631 v 1.5627 z" /><path
           inkscape:connector-curvature="0"
           id="path848"
           style="font-style:normal;font-variant:normal;font-weight:800;font-stretch:normal;font-size:16.9333px;line-height:0.7;font-family:'Roboto Slab';-inkscape-font-specification:'Roboto Slab Ultra-Bold';letter-spacing:0px;word-spacing:0px;fill:#2e87c8;fill-opacity:1;stroke:none;stroke-width:0.264583"
           d="m 147.60006,265.27284 q -1.32291,0 -2.12493,-0.71933 -0.79375,-0.72761 -0.79375,-1.95957 0,-0.83509 0.44648,-1.48002 0.45476,-0.64492 1.35599,-1.00872 0.90124,-0.3638 2.24069,-0.3638 h 1.0666 v -0.59531 q 0,-0.59532 -0.34726,-0.98392 -0.339,-0.38861 -1.0418,-0.38861 -0.33899,0 -0.62011,0.0827 -0.27286,0.0827 -0.50437,0.23978 l -0.19017,1.15755 h -1.88515 l -0.0331,-2.39778 q 0.7276,-0.37207 1.55442,-0.62012 0.82682,-0.24805 1.83555,-0.24805 1.7942,0 2.836,0.82682 1.0418,0.82683 1.0418,2.35645 v 3.50573 q 0,0.19017 0,0.37207 0.008,0.17363 0.0413,0.339 l 0.94258,0.14882 v 1.5627 h -3.175 q -0.0992,-0.19017 -0.20671,-0.44648 -0.10749,-0.25632 -0.14883,-0.51263 -0.42168,0.52089 -0.96738,0.82682 -0.5457,0.30592 -1.32292,0.30592 z m 0.76068,-1.90996 q 0.41341,0 0.80202,-0.1819 0.38861,-0.1819 0.62838,-0.49609 v -1.35599 h -1.05006 q -0.69453,0 -1.0666,0.31419 -0.3638,0.31419 -0.3638,0.77721 0,0.44649 0.28112,0.69454 0.28938,0.24804 0.76894,0.24804 z" /><path
           inkscape:connector-curvature="0"
           id="path850"
           style="font-style:normal;font-variant:normal;font-weight:800;font-stretch:normal;font-size:16.9333px;line-height:0.7;font-family:'Roboto Slab';-inkscape-font-specification:'Roboto Slab Ultra-Bold';letter-spacing:0px;word-spacing:0px;fill:#2e87c8;fill-opacity:1;stroke:none;stroke-width:0.264583"
           d="m 157.57982,265.27284 q -1.05834,0 -1.81901,-0.5457 -0.76068,-0.55397 -1.16582,-1.55443 -0.39688,-1.00045 -0.39688,-2.32337 v -0.17363 q 0,-1.4056 0.40515,-2.45567 0.40514,-1.05833 1.15755,-1.64537 0.76067,-0.58705 1.80247,-0.58705 0.72761,0 1.25677,0.29766 0.53744,0.28939 0.93431,0.82682 v -3.08405 l -1.27331,-0.25631 v -1.57097 h 1.27331 2.64583 v 11.07943 l 1.10795,0.25631 v 1.5627 h -3.39824 l -0.19844,-1.09967 q -0.41341,0.62838 -0.98392,0.95084 -0.57051,0.32246 -1.34772,0.32246 z m 0.81028,-2.04225 q 0.42995,0 0.77722,-0.17363 0.35553,-0.1819 0.58704,-0.52917 v -3.6959 q -0.23151,-0.38034 -0.57051,-0.58704 -0.33899,-0.21498 -0.77721,-0.21498 -0.55397,0 -0.90124,0.339 -0.34726,0.33073 -0.50436,0.92604 -0.15709,0.58705 -0.15709,1.3808 v 0.17363 q 0,1.11621 0.34726,1.75287 0.34727,0.62838 1.19889,0.62838 z" /><path
           inkscape:connector-curvature="0"
           id="path852"
           style="font-style:normal;font-variant:normal;font-weight:800;font-stretch:normal;font-size:16.9333px;line-height:0.7;font-family:'Roboto Slab';-inkscape-font-specification:'Roboto Slab Ultra-Bold';letter-spacing:0px;word-spacing:0px;fill:#2e87c8;fill-opacity:1;stroke:none;stroke-width:0.264583"
           d="m 168.51868,265.27284 q -1.29811,0 -2.26549,-0.56224 -0.96738,-0.5705 -1.50482,-1.55442 -0.52916,-0.99219 -0.52916,-2.24896 v -0.32246 q 0,-1.33946 0.48782,-2.38125 0.48783,-1.0418 1.4056,-1.62884 0.91777,-0.59532 2.19935,-0.58705 1.21543,0 2.05052,0.47129 0.83509,0.47129 1.26504,1.3808 0.43821,0.90123 0.43821,2.19934 v 1.4056 h -5.10149 l -0.008,0.0496 q 0.0496,0.51263 0.28112,0.90951 0.23978,0.3886 0.65319,0.62011 0.42168,0.23152 1.02526,0.23152 0.62012,0 1.17409,-0.14883 0.56224,-0.14883 1.13274,-0.46302 l 0.66146,1.6123 q -0.57877,0.43822 -1.43867,0.7276 -0.85163,0.28939 -1.9265,0.28939 z m -1.54615,-5.52317 h 2.64583 v -0.21498 q 0,-0.51263 -0.12402,-0.86816 -0.11576,-0.3638 -0.39688,-0.55397 -0.27285,-0.19017 -0.7276,-0.19017 -0.46302,0 -0.76068,0.23151 -0.29766,0.23151 -0.45475,0.63665 -0.14883,0.40514 -0.20671,0.91778 z" /></g><g
         id="g3"
         transform="translate(41.497934,-4.3547583)"><path
           inkscape:connector-curvature="0"
           id="path854"
           style="font-style:normal;font-variant:normal;font-weight:800;font-stretch:normal;font-size:16.9333px;line-height:0.7;font-family:'Roboto Slab';-inkscape-font-specification:'Roboto Slab Ultra-Bold';letter-spacing:0px;word-spacing:0px;fill:#2e87c8;fill-opacity:1;stroke:none;stroke-width:0.264583"
           d="m 131.43568,278.7292 q -1.39733,0 -2.51354,-0.28938 -1.11621,-0.28939 -2.20762,-1.0418 v -3.0179 h 2.04225 l 0.25632,1.66191 q 0.31419,0.30592 0.97565,0.50436 0.66146,0.19844 1.44694,0.19844 0.60358,0 1.01699,-0.1571 0.41341,-0.16536 0.62839,-0.46302 0.21497,-0.30592 0.21497,-0.71933 0,-0.39688 -0.19844,-0.7028 -0.19017,-0.3142 -0.63665,-0.57878 -0.44649,-0.26458 -1.20716,-0.5209 -1.48828,-0.45475 -2.45567,-0.95911 -0.95911,-0.51263 -1.43867,-1.20716 -0.47129,-0.7028 -0.47129,-1.7198 0,-0.98391 0.55397,-1.72806 0.56224,-0.7524 1.53789,-1.18235 0.97565,-0.42995 2.24896,-0.44649 1.43041,-0.0331 2.53008,0.30593 1.09967,0.339 1.91823,0.97565 v 2.80293 h -1.96784 l -0.33073,-1.62884 q -0.29765,-0.17364 -0.82682,-0.30593 -0.5209,-0.13229 -1.15755,-0.13229 -0.54571,0 -0.96739,0.1571 -0.41341,0.14883 -0.66145,0.45475 -0.23978,0.29766 -0.23978,0.73587 0,0.35554 0.2067,0.63666 0.20671,0.28112 0.71107,0.5457 0.50436,0.25631 1.39733,0.57051 2.01745,0.57877 3.05925,1.48828 1.05006,0.9095 1.05006,2.42259 0,1.05006 -0.57051,1.80247 -0.56224,0.74414 -1.57923,1.14102 -1.01699,0.39687 -2.36471,0.39687 z" /><path
           inkscape:connector-curvature="0"
           id="path856"
           style="font-style:normal;font-variant:normal;font-weight:800;font-stretch:normal;font-size:16.9333px;line-height:0.7;font-family:'Roboto Slab';-inkscape-font-specification:'Roboto Slab Ultra-Bold';letter-spacing:0px;word-spacing:0px;fill:#2e87c8;fill-opacity:1;stroke:none;stroke-width:0.264583"
           d="m 140.48112,278.73747 q -1.32292,0 -2.02572,-0.71107 -0.7028,-0.71933 -0.7028,-2.27376 v -4.29948 h -1.17408 v -1.84381 h 1.17408 V 267.41 h 2.6293 v 2.19935 h 1.5627 v 1.84381 h -1.5627 v 4.29121 q 0,0.47956 0.20671,0.68627 0.21497,0.19843 0.57877,0.19843 0.1819,0 0.37207,-0.0248 0.19017,-0.0248 0.34727,-0.0496 l 0.19844,1.94303 q -0.37207,0.10749 -0.78548,0.17364 -0.40515,0.0661 -0.81856,0.0661 z" /><path
           inkscape:connector-curvature="0"
           id="path858"
           style="font-style:normal;font-variant:normal;font-weight:800;font-stretch:normal;font-size:16.9333px;line-height:0.7;font-family:'Roboto Slab';-inkscape-font-specification:'Roboto Slab Ultra-Bold';letter-spacing:0px;word-spacing:0px;fill:#2e87c8;fill-opacity:1;stroke:none;stroke-width:0.264583"
           d="m 145.97122,278.7292 q -1.32291,0 -2.12493,-0.71933 -0.79375,-0.72761 -0.79375,-1.95957 0,-0.83509 0.44648,-1.48002 0.45476,-0.64492 1.35599,-1.00872 0.90124,-0.3638 2.24069,-0.3638 h 1.06661 v -0.59531 q 0,-0.59532 -0.34727,-0.98392 -0.339,-0.38861 -1.0418,-0.38861 -0.33899,0 -0.62011,0.0827 -0.27286,0.0827 -0.50437,0.23978 l -0.19017,1.15755 h -1.88515 l -0.0331,-2.39778 q 0.7276,-0.37207 1.55442,-0.62012 0.82683,-0.24805 1.83555,-0.24805 1.7942,0 2.836,0.82683 1.0418,0.82682 1.0418,2.35644 v 3.50573 q 0,0.19017 0,0.37207 0.008,0.17363 0.0413,0.339 l 0.94258,0.14883 v 1.56269 h -3.175 q -0.0992,-0.19017 -0.20671,-0.44648 -0.10748,-0.25632 -0.14883,-0.51263 -0.42168,0.5209 -0.96738,0.82682 -0.5457,0.30592 -1.32292,0.30592 z m 0.76068,-1.90996 q 0.41341,0 0.80202,-0.1819 0.38861,-0.1819 0.62839,-0.49609 v -1.35599 h -1.05007 q -0.69453,0 -1.0666,0.31419 -0.3638,0.31419 -0.3638,0.77722 0,0.44648 0.28112,0.69453 0.28938,0.24804 0.76894,0.24804 z" /><path
           inkscape:connector-curvature="0"
           id="path860"
           style="font-style:normal;font-variant:normal;font-weight:800;font-stretch:normal;font-size:16.9333px;line-height:0.7;font-family:'Roboto Slab';-inkscape-font-specification:'Roboto Slab Ultra-Bold';letter-spacing:0px;word-spacing:0px;fill:#2e87c8;fill-opacity:1;stroke:none;stroke-width:0.264583"
           d="m 155.77734,278.73747 q -1.32291,0 -2.02571,-0.71107 -0.7028,-0.71933 -0.7028,-2.27376 v -4.29948 h -1.17409 v -1.84381 h 1.17409 V 267.41 h 2.62929 v 2.19935 h 1.5627 v 1.84381 h -1.5627 v 4.29121 q 0,0.47956 0.20671,0.68627 0.21497,0.19843 0.57878,0.19843 0.1819,0 0.37207,-0.0248 0.19017,-0.0248 0.34726,-0.0496 l 0.19844,1.94303 q -0.37207,0.10749 -0.78548,0.17364 -0.40515,0.0661 -0.81856,0.0661 z" /><path
           inkscape:connector-curvature="0"
           id="path862"
           style="font-style:normal;font-variant:normal;font-weight:800;font-stretch:normal;font-size:16.9333px;line-height:0.7;font-family:'Roboto Slab';-inkscape-font-specification:'Roboto Slab Ultra-Bold';letter-spacing:0px;word-spacing:0px;fill:#2e87c8;fill-opacity:1;stroke:none;stroke-width:0.264583"
           d="m 158.42318,278.55557 v -1.56269 l 1.10794,-0.25632 v -5.29993 l -1.26504,-0.25632 v -1.57096 h 3.91087 v 7.12721 l 1.10795,0.25632 v 1.56269 z m 1.02526,-10.74043 v -2.15801 h 2.72851 v 2.15801 z" /><path
           inkscape:connector-curvature="0"
           id="path864"
           style="font-style:normal;font-variant:normal;font-weight:800;font-stretch:normal;font-size:16.9333px;line-height:0.7;font-family:'Roboto Slab';-inkscape-font-specification:'Roboto Slab Ultra-Bold';letter-spacing:0px;word-spacing:0px;fill:#2e87c8;fill-opacity:1;stroke:none;stroke-width:0.264583"
           d="m 167.8903,278.7292 q -1.02526,0 -1.91823,-0.19017 -0.8847,-0.19016 -1.64538,-0.53743 l -0.0331,-2.6541 h 1.81074 l 0.33073,1.28984 q 0.23151,0.12403 0.53744,0.20671 0.30592,0.0827 0.71106,0.0827 0.76068,0 1.05834,-0.23151 0.29765,-0.23151 0.29765,-0.57051 0,-0.33073 -0.33073,-0.59531 -0.33072,-0.26458 -1.34772,-0.45475 -1.57923,-0.32246 -2.33164,-1.03353 -0.74414,-0.71934 -0.74414,-1.81901 0,-0.74414 0.3638,-1.36426 0.36381,-0.62839 1.14102,-1.00872 0.78548,-0.38861 2.04225,-0.38861 1.00873,0 1.88516,0.19017 0.87643,0.1819 1.45521,0.47129 l 0.008,2.56315 h -1.80247 l -0.25631,-1.15755 q -0.20671,-0.14883 -0.47956,-0.22325 -0.27285,-0.0827 -0.61185,-0.0827 -0.59531,0 -0.90124,0.23151 -0.29765,0.23151 -0.29765,0.58705 0,0.2067 0.11575,0.40514 0.12403,0.19017 0.46302,0.3638 0.339,0.16537 1.00046,0.31419 1.60403,0.35554 2.36471,0.97566 0.76895,0.62011 0.76895,1.80247 0,1.28158 -0.92604,2.05879 -0.92605,0.76894 -2.72852,0.76894 z" /><path
           inkscape:connector-curvature="0"
           id="path866"
           style="font-style:normal;font-variant:normal;font-weight:800;font-stretch:normal;font-size:16.9333px;line-height:0.7;font-family:'Roboto Slab';-inkscape-font-specification:'Roboto Slab Ultra-Bold';letter-spacing:0px;word-spacing:0px;fill:#2e87c8;fill-opacity:1;stroke:none;stroke-width:0.264583"
           d="m 176.1916,278.73747 q -1.32292,0 -2.02572,-0.71107 -0.7028,-0.71933 -0.7028,-2.27376 v -4.29948 h -1.17409 v -1.84381 h 1.17409 V 267.41 h 2.6293 v 2.19935 h 1.56269 v 1.84381 h -1.56269 v 4.29121 q 0,0.47956 0.20671,0.68627 0.21497,0.19843 0.57877,0.19843 0.1819,0 0.37207,-0.0248 0.19017,-0.0248 0.34727,-0.0496 l 0.19843,1.94303 q -0.37207,0.10749 -0.78548,0.17364 -0.40514,0.0661 -0.81855,0.0661 z" /><path
           inkscape:connector-curvature="0"
           id="path868"
           style="font-style:normal;font-variant:normal;font-weight:800;font-stretch:normal;font-size:16.9333px;line-height:0.7;font-family:'Roboto Slab';-inkscape-font-specification:'Roboto Slab Ultra-Bold';letter-spacing:0px;word-spacing:0px;fill:#2e87c8;fill-opacity:1;stroke:none;stroke-width:0.264583"
           d="m 178.83743,278.55557 v -1.56269 l 1.10795,-0.25632 v -5.29993 l -1.26504,-0.25632 v -1.57096 h 3.91087 v 7.12721 l 1.10794,0.25632 v 1.56269 z m 1.02526,-10.74043 v -2.15801 h 2.72852 v 2.15801 z" /><path
           inkscape:connector-curvature="0"
           id="path870"
           style="font-style:normal;font-variant:normal;font-weight:800;font-stretch:normal;font-size:16.9333px;line-height:0.7;font-family:'Roboto Slab';-inkscape-font-specification:'Roboto Slab Ultra-Bold';letter-spacing:0px;word-spacing:0px;fill:#2e87c8;fill-opacity:1;stroke:none;stroke-width:0.264583"
           d="m 188.66009,278.7292 q -1.30638,0 -2.25723,-0.57877 -0.94258,-0.58705 -1.45521,-1.60404 -0.50436,-1.02526 -0.50436,-2.33991 v -0.22324 q 0,-1.33118 0.5209,-2.35644 0.5209,-1.02526 1.46348,-1.60404 0.94257,-0.57878 2.21588,-0.57878 1.24023,0 2.1332,0.38034 0.89297,0.38034 1.43041,0.84336 l -0.0331,2.68718 h -1.98437 l -0.33073,-1.61231 q -0.16536,-0.16536 -0.43822,-0.27285 -0.27285,-0.10749 -0.51263,-0.10749 -0.64492,0 -1.05006,0.30593 -0.39688,0.29765 -0.58705,0.87643 -0.1819,0.57877 -0.1819,1.43867 v 0.22324 q 0,0.90124 0.22325,1.45521 0.22324,0.5457 0.58704,0.80202 0.37207,0.24805 0.78548,0.24805 0.58705,0 0.91777,-0.29766 0.339,-0.30592 0.48783,-0.86816 h 2.24069 l 0.0331,0.0496 q -0.17363,1.00872 -0.59531,1.71152 -0.41341,0.69453 -1.16582,1.05833 -0.75241,0.3638 -1.94303,0.3638 z" /><path
           inkscape:connector-curvature="0"
           id="path872"
           style="font-style:normal;font-variant:normal;font-weight:800;font-stretch:normal;font-size:16.9333px;line-height:0.7;font-family:'Roboto Slab';-inkscape-font-specification:'Roboto Slab Ultra-Bold';letter-spacing:0px;word-spacing:0px;fill:#2e87c8;fill-opacity:1;stroke:none;stroke-width:0.264583"
           d="m 197.29212,278.7292 q -1.02526,0 -1.91823,-0.19017 -0.8847,-0.19016 -1.64538,-0.53743 l -0.0331,-2.6541 h 1.81074 l 0.33073,1.28984 q 0.23151,0.12403 0.53743,0.20671 0.30593,0.0827 0.71107,0.0827 0.76068,0 1.05833,-0.23151 0.29766,-0.23151 0.29766,-0.57051 0,-0.33073 -0.33073,-0.59531 -0.33073,-0.26458 -1.34772,-0.45475 -1.57923,-0.32246 -2.33164,-1.03353 -0.74414,-0.71934 -0.74414,-1.81901 0,-0.74414 0.3638,-1.36426 0.3638,-0.62839 1.14102,-1.00872 0.78548,-0.38861 2.04225,-0.38861 1.00872,0 1.88516,0.19017 0.87643,0.1819 1.4552,0.47129 l 0.008,2.56315 h -1.80247 l -0.25632,-1.15755 q -0.2067,-0.14883 -0.47955,-0.22325 -0.27286,-0.0827 -0.61185,-0.0827 -0.59532,0 -0.90124,0.23151 -0.29766,0.23151 -0.29766,0.58705 0,0.2067 0.11576,0.40514 0.12402,0.19017 0.46302,0.3638 0.339,0.16537 1.00046,0.31419 1.60403,0.35554 2.36471,0.97566 0.76894,0.62011 0.76894,1.80247 0,1.28158 -0.92604,2.05879 -0.92604,0.76894 -2.72851,0.76894 z" /></g></g></g></svg>
